<svg width="27" height="23" viewBox="0.30248260498046875 0.3673553466796875 26.395034790039062 22.265289306640625" fill="none" xmlns="http://www.w3.org/2000/svg">
<path d="M13.5 0C9.83353 0 9.37456 0.0133503 7.93435 0.0667514C6.49414 0.124603 5.51817 0.315957 4.65826 0.596313C3.77198 0.885569 3.01758 1.27718 2.26319 1.90909C1.50879 2.541 1.04982 3.17737 0.706916 3.92943C0.37456 4.6548 0.147714 5.48252 0.0791325 6.69294C0.010551 7.90782 0 8.29498 0 11.3878C0 14.4806 0.0158265 14.8678 0.0791325 16.0826C0.147714 17.2931 0.37456 18.1208 0.706916 18.8462C1.04982 19.5938 1.51407 20.2301 2.26319 20.8665C3.01231 21.4984 3.76671 21.89 4.65826 22.1793C5.51817 22.4596 6.49941 22.651 7.93435 22.7088C9.37456 22.7667 9.83353 22.7756 13.5 22.7756C17.1665 22.7756 17.6254 22.7622 19.0657 22.7088C20.5006 22.651 21.4818 22.4596 22.3417 22.1793C23.228 21.89 23.9824 21.4984 24.7368 20.8665C25.4859 20.2346 25.9502 19.5982 26.2931 18.8462C26.6254 18.1208 26.8523 17.2931 26.9209 16.0826C26.9895 14.8678 27 14.4806 27 11.3878C27 8.29498 26.9842 7.90782 26.9209 6.69294C26.8523 5.48252 26.6254 4.6548 26.2931 3.92943C25.9502 3.18182 25.4859 2.54545 24.7368 1.90909C23.9877 1.27718 23.2333 0.885569 22.3417 0.596313C21.4818 0.315957 20.5006 0.124603 19.0657 0.0667514C17.6254 0.0133503 17.1665 0 13.5 0ZM13.5 2.05149C17.1032 2.05149 17.5358 2.06484 18.9601 2.11825C20.279 2.17165 20.9912 2.3541 21.466 2.5143C22.0991 2.71901 22.5475 2.96821 23.0223 3.36427C23.4918 3.76478 23.7872 4.14304 24.0299 4.67705C24.2145 5.07756 24.4361 5.67832 24.4941 6.79085C24.5574 7.99237 24.5733 8.35283 24.5733 11.3967C24.5733 14.4406 24.5574 14.801 24.4889 16.0025C24.4203 17.1151 24.1987 17.7158 24.0141 18.1163C23.7608 18.6504 23.476 19.0286 23.0012 19.4291C22.5317 19.8252 22.0727 20.0744 21.4502 20.2791C20.9754 20.4348 20.2526 20.6217 18.9338 20.6707C17.4988 20.7241 17.0768 20.7374 13.4631 20.7374C9.84935 20.7374 9.42732 20.7241 7.99238 20.6662C6.67351 20.6084 5.95076 20.4215 5.47597 20.2657C4.83763 20.0521 4.39449 19.8118 3.92497 19.4113C3.45018 19.0153 3.14947 18.6281 2.91207 18.103C2.72743 17.7025 2.50586 17.0928 2.43728 15.9803C2.38452 14.7832 2.3687 14.4139 2.3687 11.3833C2.3687 8.34838 2.38452 7.97902 2.43728 6.7686C2.50586 5.65607 2.72216 5.04641 2.91207 4.6459C3.14947 4.10299 3.45018 3.73363 3.92497 3.33312C4.39449 2.93706 4.83763 2.67896 5.47597 2.4787C5.95076 2.32295 6.65768 2.13605 7.97655 2.0782C9.41149 2.03369 9.83353 2.02034 13.4472 2.02034L13.5 2.05149ZM13.5 5.54037C9.66999 5.54037 6.56272 8.16148 6.56272 11.3922C6.56272 14.623 9.66999 17.2441 13.5 17.2441C17.33 17.2441 20.4373 14.623 20.4373 11.3922C20.4373 8.16148 17.33 5.54037 13.5 5.54037ZM13.5 15.1882C11.0152 15.1882 9 13.4882 9 11.3922C9 9.29625 11.0152 7.59631 13.5 7.59631C15.9848 7.59631 18 9.29625 18 11.3922C18 13.4882 15.9848 15.1882 13.5 15.1882ZM22.3312 5.31341C22.3312 6.06993 21.6032 6.67959 20.7116 6.67959C19.8148 6.67959 19.092 6.06548 19.092 5.31341C19.092 4.56135 19.82 3.94724 20.7116 3.94724C21.6032 3.94279 22.3312 4.5569 22.3312 5.31341Z" fill="white"/>
</svg>
